<?xml version="1.0" encoding="iso-8859-1"?>
<!-- Generator: Adobe Illustrator 19.0.0, SVG Export Plug-In . SVG Version: 6.00 Build 0)  -->
<svg xmlns="http://www.w3.org/2000/svg" xmlns:xlink="http://www.w3.org/1999/xlink" version="1.1" id="Layer_1" x="0px" y="0px" viewBox="0 0 512 512" style="enable-background:new 0 0 512 512;" xml:space="preserve" width="512" height="512">
<g>
	<circle style="fill:#E0F4FF;" cx="256" cy="256" r="256"/>
	<path style="fill:#BBDCFF;" d="M511.927,250.189c-0.19-8.303-0.776-16.601-1.761-24.847L388.14,103.317l-56.477,3.847   l-13.685,13.685l26.315,26.315l-47.481,47.481l-31.484-31.484l-21.757,21.757l-73.729-73.729l-37.374,37.374l25.692,25.692   l-51.853,51.853l50.37,50.37L139,294.156l37.923,37.923l-70.613,70.613l105.495,105.495   C368.133,530.52,515.541,412.755,511.927,250.189C511.916,249.746,511.969,252.122,511.927,250.189z"/>
	<g>
		<polygon style="fill:#537983;" points="385.519,118.218 256.585,247.327 247.814,256.098 247.814,201.367 138.995,294.165     127.416,280.833 256.585,170.669 265.356,163.126 265.356,213.647 373.24,105.938   "/>
		<polygon style="fill:#3E5959;" points="385.519,118.218 256.585,247.327 256.585,170.669 265.356,163.126 265.356,213.647     373.24,105.938   "/>
		<polygon style="fill:#FF9100;" points="405.692,226.102 405.692,261.186 388.15,278.728 335.524,278.728 317.982,261.186     317.982,226.102   "/>
		<polygon style="fill:#FF641A;" points="405.692,226.102 405.692,261.186 388.15,278.728 361.837,278.728 361.837,226.102   "/>
		<polygon style="fill:#FDBF00;" points="405.692,261.186 405.692,296.27 388.15,313.813 335.524,313.813 317.982,296.27     317.982,261.186   "/>
		<polygon style="fill:#FF9100;" points="405.692,261.186 405.692,296.27 388.15,313.813 361.837,313.813 361.837,261.186   "/>
		<polygon style="fill:#FF9100;" points="300.44,296.27 300.44,331.355 282.898,349.481 230.272,349.481 212.73,331.355     212.73,296.27   "/>
		<polygon style="fill:#FF641A;" points="300.44,296.27 300.44,331.355 282.898,349.481 256.585,349.481 256.585,296.27   "/>
		<polygon style="fill:#FDBF00;" points="195.187,331.355 195.187,367.023 177.645,384.566 124.434,384.566 106.308,367.023     106.308,331.355   "/>
		<polygon style="fill:#FF9100;" points="195.187,331.355 195.187,367.023 177.645,384.566 150.748,384.566 150.748,331.355   "/>
		<rect x="106.308" y="367.023" style="fill:#FF9100;" width="88.88" height="35.669"/>
		<polygon style="fill:#3E5959;" points="388.15,173.476 370.608,173.476 370.608,120.85 317.982,120.85 317.982,103.308     388.15,103.308   "/>
		<path style="fill:#38D3F8;" d="M150.748,103.308c-14.56,0-26.313,11.753-26.313,26.313s11.753,26.313,26.313,26.313    c14.56,0,26.898-11.753,26.898-26.313S165.308,103.308,150.748,103.308z"/>
		<path style="fill:#25D9F8;" d="M150.748,155.934c-24.208,0-44.44,19.647-44.44,43.855v26.313h88.88v-26.313    C195.187,175.581,174.956,155.934,150.748,155.934z"/>
		<path style="fill:#00C0F1;" d="M150.748,155.934v-52.626c14.56,0,26.898,11.753,26.898,26.313S165.308,155.934,150.748,155.934z"/>
		<path style="fill:#00C0F1;" d="M195.187,199.789v26.313h-44.44v-70.168C174.956,155.934,195.187,175.581,195.187,199.789z"/>
		<rect x="150.748" y="367.023" style="fill:#FF641A;" width="44.44" height="35.669"/>
		<polygon style="fill:#FDBF00;" points="300.44,331.355 300.44,367.023 282.898,384.566 230.272,384.566 212.73,367.023     212.73,331.355   "/>
		<polygon style="fill:#FF9100;" points="300.44,331.355 300.44,367.023 282.898,384.566 256.585,384.566 256.585,331.355   "/>
		<rect x="212.73" y="367.023" style="fill:#FF9100;" width="87.71" height="35.669"/>
		<rect x="256.585" y="367.023" style="fill:#FF641A;" width="43.855" height="35.669"/>
		<polygon style="fill:#FF9100;" points="405.692,296.27 405.692,331.355 388.15,349.481 335.524,349.481 317.982,331.355     317.982,296.27   "/>
		<polygon style="fill:#FF641A;" points="405.692,296.27 405.692,331.355 388.15,349.481 361.837,349.481 361.837,296.27   "/>
		<polygon style="fill:#FDBF00;" points="405.692,331.355 405.692,367.023 388.15,384.566 335.524,384.566 317.982,367.023     317.982,331.355   "/>
		<polygon style="fill:#FF9100;" points="405.692,331.355 405.692,367.023 388.15,384.566 361.837,384.566 361.837,331.355   "/>
		<rect x="317.982" y="367.023" style="fill:#FF9100;" width="87.71" height="35.669"/>
		<rect x="361.837" y="367.023" style="fill:#FF641A;" width="43.855" height="35.669"/>
	</g>
</g>















</svg>
