<svg height="512pt" viewBox="0 0 512 512" width="512pt" xmlns="http://www.w3.org/2000/svg"><path d="m512 256c0 141.386719-114.613281 256-256 256s-256-114.613281-256-256 114.613281-256 256-256 256 114.613281 256 256zm0 0" fill="#ff7045"/><path d="m261.484375 511.929688c132.714844-2.789063 240.582031-106.570313 249.855469-237.59375l-197.335938-197.335938-115.855468 179.996094-25.078126-25.078125-98.421874 93.175781zm0 0" fill="#ea3f24"/><path d="m368.429688 324.375-112.429688-112.429688-112.429688 112.429688-21.214843-21.214844 133.644531-133.640625 133.644531 133.640625zm0 0" fill="#e6e6e6"/><path d="m256 169.519531-.285156.285157v42.425781l.285156-.285157 112.429688 112.429688 21.214843-21.214844zm0 0" fill="#d7d7d7"/><path d="m241 255h30v113h-30zm0 0" fill="#e6e6e6"/><path d="m255.714844 255h15.285156v113h-15.285156zm0 0" fill="#d7d7d7"/><path d="m323.785156 378.882812c0 37.4375-30.347656 67.785157-67.785156 67.785157s-67.785156-30.347657-67.785156-67.785157c0-37.433593 30.347656-67.78125 67.785156-67.78125s67.785156 30.347657 67.785156 67.78125zm0 0" fill="#4a7aff"/><path d="m256 311.101562c-.097656 0-.191406.003907-.285156.003907v135.554687c.09375 0 .1875.007813.285156.007813 37.4375 0 67.785156-30.347657 67.785156-67.785157 0-37.433593-30.347656-67.78125-67.785156-67.78125zm0 0" fill="#1959db"/><path d="m282.21875 357.417969c0 14.480469-11.738281 26.21875-26.21875 26.21875s-26.21875-11.738281-26.21875-26.21875 11.738281-26.21875 26.21875-26.21875 26.21875 11.738281 26.21875 26.21875zm0 0" fill="#fff"/><path d="m256 331.199219c-.097656 0-.191406.003906-.285156.003906v52.429687c.09375 0 .1875.003907.285156.003907 14.480469 0 26.21875-11.738281 26.21875-26.21875s-11.738281-26.21875-26.21875-26.21875zm0 0" fill="#e9edf5"/><path d="m256 446.667969c19.929688 0 37.847656-8.601563 50.25-22.292969-6.496094-21.601562-26.53125-37.339844-50.25-37.339844s-43.753906 15.738282-50.25 37.339844c12.402344 13.691406 30.320312 22.292969 50.25 22.292969zm0 0" fill="#fff"/><path d="m256 387.035156c-.097656 0-.191406.003906-.285156.003906v59.621094c.09375 0 .1875.007813.285156.007813 19.929688 0 37.847656-8.601563 50.25-22.292969-6.496094-21.601562-26.53125-37.339844-50.25-37.339844zm0 0" fill="#e9edf5"/><path d="m192.683594 279.601562c0 37.4375-30.347656 67.785157-67.785156 67.785157-37.433594 0-67.785157-30.347657-67.785157-67.785157s30.351563-67.785156 67.785157-67.785156c37.4375 0 67.785156 30.347656 67.785156 67.785156zm0 0" fill="#4a7aff"/><path d="m151.117188 258.136719c0 14.480469-11.738282 26.21875-26.21875 26.21875-14.480469 0-26.21875-11.738281-26.21875-26.21875s11.738281-26.222657 26.21875-26.222657c14.480468 0 26.21875 11.742188 26.21875 26.222657zm0 0" fill="#fff"/><path d="m124.898438 347.386719c19.929687 0 37.847656-8.601563 50.25-22.292969-6.496094-21.601562-26.53125-37.339844-50.25-37.339844s-43.753907 15.738282-50.25 37.339844c12.402343 13.691406 30.320312 22.292969 50.25 22.292969zm0 0" fill="#fff"/><path d="m454.886719 279.601562c0 37.4375-30.351563 67.785157-67.785157 67.785157-37.4375 0-67.785156-30.347657-67.785156-67.785157s30.347656-67.785156 67.785156-67.785156c37.433594 0 67.785157 30.347656 67.785157 67.785156zm0 0" fill="#1959db"/><path d="m413.320312 258.136719c0 14.480469-11.738281 26.21875-26.21875 26.21875-14.480468 0-26.21875-11.738281-26.21875-26.21875s11.738282-26.222657 26.21875-26.222657c14.480469 0 26.21875 11.742188 26.21875 26.222657zm0 0" fill="#e9edf5"/><path d="m387.101562 347.386719c19.929688 0 37.847657-8.601563 50.25-22.292969-6.496093-21.601562-26.53125-37.339844-50.25-37.339844s-43.753906 15.738282-50.25 37.339844c12.402344 13.691406 30.320313 22.292969 50.25 22.292969zm0 0" fill="#e9edf5"/><path d="m332.382812 127.957031c0-43.628906-34.785156-78.929687-77.472656-78.316406-42.171875.601563-76.140625 36.707031-75.277344 79.949219.425782 21.429687 9.25 40.742187 23.230469 54.628906 9.082031 9.019531 14.851563 20.976562 15.929688 33.894531l3.222656 38.660157h67.96875l3.21875-38.660157c1.074219-12.878906 6.78125-24.835937 15.851563-33.8125 14.382812-14.242187 23.328124-34.222656 23.328124-56.34375zm0 0" fill="#ffce00"/><path d="m255.714844 49.648438v207.125h34.269531l3.222656-38.660157c1.070313-12.878906 6.777344-24.835937 15.847657-33.8125 14.382812-14.242187 23.328124-34.222656 23.328124-56.34375 0-43.355469-34.355468-78.464843-76.667968-78.308593zm0 0" fill="#fca915"/><path d="m256 283.703125c-19.96875 0-36.152344-16.1875-36.152344-36.152344v-16.832031h72.304688v16.832031c0 19.964844-16.183594 36.152344-36.152344 36.152344zm0 0" fill="#fff"/><path d="m255.714844 230.71875v52.976562c.09375 0 .1875.007813.285156.007813 19.96875 0 36.152344-16.1875 36.152344-36.152344v-16.832031zm0 0" fill="#e9edf5"/></svg>