<?xml version="1.0" encoding="iso-8859-1"?>
<!-- Generator: Adobe Illustrator 21.0.0, SVG Export Plug-In . SVG Version: 6.00 Build 0)  -->
<svg xmlns="http://www.w3.org/2000/svg" xmlns:xlink="http://www.w3.org/1999/xlink" version="1.1" id="Capa_1" x="0px" y="0px" viewBox="0 0 512 512" style="enable-background:new 0 0 512 512;" xml:space="preserve" width="512" height="512">
<g>
	<g>
		<path style="fill:#FFDF24;" d="M437.02,74.98C388.72,26.68,324.52,0.06,256.22,0H256C187.62,0,123.33,26.63,74.98,74.98    C26.63,123.33,0,187.62,0,256s26.63,132.67,74.98,181.02C123.33,485.37,187.62,512,256,512h0.22    c68.3-0.06,132.5-26.68,180.8-74.98C485.37,388.67,512,324.38,512,256S485.37,123.33,437.02,74.98z"/>
		<path style="fill:#ECBD00;" d="M512,256c0,68.38-26.63,132.67-74.98,181.02c-48.3,48.3-112.5,74.92-180.8,74.98V0    c68.3,0.06,132.5,26.68,180.8,74.98C485.37,123.33,512,187.62,512,256z"/>
		<path style="fill:#DB7D00;" d="M351.412,111.794c5.156-6.482,14.593-7.558,21.077-2.4c21.899,17.423,39.909,39.9,52.081,65.002    c3.614,7.454,0.502,16.427-6.952,20.042c-2.108,1.022-4.339,1.506-6.534,1.506c-5.567,0-10.915-3.112-13.508-8.459    c-10.225-21.085-25.357-39.971-43.765-54.614C347.329,127.714,346.254,118.277,351.412,111.794z"/>
		<path style="fill:#FF9D22;" d="M308.69,91.27c-1.83,8.08-9.85,13.16-17.94,11.34c-11.41-2.58-23.22-3.85-35.02-3.83    c-11.79,0.02-23.58,1.33-34.97,3.94c-1.13,0.25-2.25,0.38-3.36,0.38c-6.84,0-13.02-4.71-14.61-11.66    c-1.85-8.07,3.2-16.12,11.28-17.97c13.58-3.11,27.62-4.67,41.66-4.69c14.02-0.02,28.04,1.5,41.62,4.56    C305.44,75.16,310.51,83.19,308.69,91.27z"/>
		<path style="fill:#FF9D22;" d="M87.169,174.936c12.093-25.144,30.033-47.68,51.88-65.174c6.467-5.179,15.907-4.132,21.085,2.333    c5.178,6.467,4.133,15.907-2.333,21.084c-18.363,14.703-33.438,33.639-43.597,54.759c-2.582,5.369-7.944,8.502-13.528,8.502    c-2.181,0-4.395-0.477-6.491-1.486C86.72,191.365,83.578,182.402,87.169,174.936z"/>
		<path style="fill:#FF9D22;" d="M107.376,344.394c-2.104,1.018-4.329,1.5-6.52,1.5c-5.573,0-10.926-3.119-13.515-8.473    c-12.303-25.44-18.555-52.766-18.584-81.217c-0.009-8.284,6.7-15.007,14.984-15.015h0.016c8.277,0,14.991,6.706,15,14.985    c0.024,23.901,5.271,46.843,15.592,68.187C117.956,331.818,114.834,340.788,107.376,344.394z"/>
		<path style="fill:#FF9D22;" d="M232.393,427.3c-1.578,6.963-7.765,11.688-14.615,11.688c-1.099,0-2.213-0.122-3.329-0.375    c-27.215-6.168-53.183-18.664-75.096-36.135c-6.478-5.165-7.542-14.602-2.378-21.08c5.165-6.478,14.601-7.542,21.08-2.377    c18.398,14.67,40.192,25.159,63.024,30.334C229.158,411.187,234.224,419.221,232.393,427.3z"/>
		<path style="fill:#FF9D22;" d="M304.96,271.81v31.93c0,18.08-14.7,32.78-32.77,32.78h-0.97v17.62c0,8.28-6.72,15-15,15    c-0.16,0-0.33,0-0.49-0.01c-8.06-0.26-14.51-6.87-14.51-14.99v-17.62h-18.75c-8.28,0-15-6.71-15-15c0-8.28,6.72-15,15-15h49.72    c1.53,0,2.77-1.25,2.77-2.78v-31.93c0-1.54-1.24-2.78-2.77-2.78h-31.94c-18.08,0-32.78-14.71-32.78-32.78v-31.94    c0-18.07,14.7-32.78,32.78-32.78h0.97v-17.61c0-8.13,6.45-14.73,14.51-14.99c0.16-0.01,0.33-0.01,0.49-0.01c8.28,0,15,6.71,15,15    v17.61h18.74c8.29,0,15,6.72,15,15c0,8.29-6.71,15-15,15h-49.71c-1.53,0-2.78,1.25-2.78,2.78v31.94c0,1.53,1.25,2.78,2.78,2.78    h31.94C290.26,239.03,304.96,253.73,304.96,271.81z"/>
		<path style="fill:#DB7D00;" d="M372.79,402.365c-21.895,17.492-47.848,30.012-75.056,36.207c-1.12,0.255-2.241,0.378-3.344,0.378    c-6.846,0-13.027-4.716-14.612-11.673c-1.839-8.078,3.218-16.117,11.296-17.956c22.825-5.198,44.607-15.708,62.991-30.395    c6.472-5.172,15.91-4.115,21.082,2.356C380.317,387.756,379.263,397.194,372.79,402.365z"/>
		<path style="fill:#DB7D00;" d="M411.221,345.735c-2.186,0-4.405-0.479-6.506-1.493c-7.462-3.599-10.593-12.565-6.994-20.027    c10.301-21.357,15.523-44.308,15.523-68.216l-0.001-0.375c0-8.284,6.716-15,15-15s15,6.716,15,15l0.001,0.375    c0,28.458-6.225,55.793-18.502,81.248C422.156,342.609,416.8,345.735,411.221,345.735z"/>
	</g>
	<path style="fill:#DB7D00;" d="M304.96,186.53c0,8.29-6.71,15-15,15h-34.23v-62.6c0.16-0.01,0.33-0.01,0.49-0.01   c8.28,0,15,6.71,15,15v17.61h18.74C298.25,171.53,304.96,178.25,304.96,186.53z"/>
	<path style="fill:#DB7D00;" d="M304.96,271.81v31.93c0,18.08-14.7,32.78-32.77,32.78h-0.97v17.62c0,8.28-6.72,15-15,15   c-0.16,0-0.33,0-0.49-0.01v-62.61h16.46c1.53,0,2.77-1.25,2.77-2.78v-31.93c0-1.54-1.24-2.78-2.77-2.78h-16.46v-30h16.46   C290.26,239.03,304.96,253.73,304.96,271.81z"/>
	<path style="fill:#DB7D00;" d="M308.69,91.27c-1.83,8.08-9.85,13.16-17.94,11.34c-11.41-2.58-23.22-3.85-35.02-3.83v-30   c14.02-0.02,28.04,1.5,41.62,4.56C305.44,75.16,310.51,83.19,308.69,91.27z"/>
</g>















</svg>
